#format: frame checksums
#version: 2
#hash: MD5
#tb 0: 1/24
#media_type 0: video
#codec_id 0: rawvideo
#dimensions 0: 640x480
#sar 0: 0/1
#stream#, dts,        pts, duration,     size, hash
0,          0,          0,        1,   460800, e2ec4074e83dd4f9188915b6b08aa3a2
0,          1,          1,        1,   460800, 9ed1ba935bc22ef03e6f8fd5b0b37ee6
0,          2,          2,        1,   460800, 3f1c536514750de86571122046b5858f
0,          3,          3,        1,   460800, 4f7943cb6f7966d19d344081b0db0d71
0,          4,          4,        1,   460800, 0661f34eb45398f8cd158b5a1637bd96
0,          5,          5,        1,   460800, 177620fa17c4d6fddad1d31c1605e46e
0,          6,          6,        1,   460800, 8e22cde58a50e0279be01c23dfd7c032
0,          7,          7,        1,   460800, 8c74c4d8ceee929fded82eeb7a0a7c29
0,          8,          8,        1,   460800, a50d00a8868f0722be55fa5953bc6ebf
0,          9,          9,        1,   460800, f791233c8904da4e267bf7bcf5d6201e
0,         10,         10,        1,   460800, 4ff703ef573eb8e88639d3c700645bf8
0,         11,         11,        1,   460800, fd4c98487779aa7783e9fb3e874f9c8b
0,         12,         12,        1,   460800, e11fbc6c36ad086ea6e611ddd28b211c
0,         13,         13,        1,   460800, a63b8af666ee30a243cf9ea0d49834b5
0,         14,         14,        1,   460800, 1cec6499bfaf054bf581efdab72f5799
0,         15,         15,        1,   460800, 5cb8ea5a7158cac1112fc6453b2a577f
0,         16,         16,        1,   460800, 2df256cb311f97f4648cdeee41ba20d1
0,         17,         17,        1,   460800, afb2c133204a99fe434767340f50c2b9
0,         18,         18,        1,   460800, 27c802932fa873af8663a6b8733391d7
0,         19,         19,        1,   460800, c53872c43baf56d496811d2809ebcd9b
0,         20,         20,        1,   460800, d3ca26ecb6bec6bfa508f07e2a66fa3a
0,         21,         21,        1,   460800, 2d44e18ccf734fe0ed98a7ce1e361fe7
0,         22,         22,        1,   460800, ac4078b5426e4664029923ccf6ea3377
0,         23,         23,        1,   460800, 60d4460a8b97e58e72c12d0c7334b4e4
0,         24,         24,        1,   460800, 95bceab68b4ecf5df261ff9d3743041a
0,         25,         25,        1,   460800, 0b80ad5bf2afbfbe512b83af797afd84
0,         26,         26,        1,   460800, fbc70468f9331a0538e8c09ec3ead20e
0,         27,         27,        1,   460800, de0578b4a114235250b7e93e9f9bf6de
0,         28,         28,        1,   460800, 72f50490650b718e394822f8873ad071
0,         29,         29,        1,   460800, b26594051d313892823eef711a08dc00
0,         30,         30,        1,   460800, 1122641658f6b433e82080e092fe6943
0,         31,         31,        1,   460800, aae4ddc51bcbdf9428f68069f5881090
0,         32,         32,        1,   460800, 018047addf7fd2ef4f1d231d69187bf5
0,         33,         33,        1,   460800, bd03ace29c974b64e2a7a4cc815ec582
0,         34,         34,        1,   460800, 7fddacb17f01d8facfb09df44ff8bdfd
0,         35,         35,        1,   460800, e8d84d6b3406404900b8342183f6ada7
0,         36,         36,        1,   460800, 5b24faed4fdd21bf9a1218658a113009
0,         37,         37,        1,   460800, 8d82775c56b6b0ab31db0c522999b0a1
0,         38,         38,        1,   460800, 282e5e03295c80b2a7b472b82c57483d
0,         39,         39,        1,   460800, 0ad41f5975c2466fc3166ea20bde6842
0,         40,         40,        1,   460800, 1439ad336ceafda0ad62355a7d0b6e50
0,         41,         41,        1,   460800, d3a97471ad64ac2378591d4f6eadba1c
0,         42,         42,        1,   460800, a40c32a1e589b103f639f2068b71bf02
0,         43,         43,        1,   460800, a339b2bedc7ef46961f8502089abfb87
0,         44,         44,        1,   460800, 2ccde43c94259682ea72188b08489e92
0,         45,         45,        1,   460800, fc47cca1f029d44ec92d95853e9c46b4
0,         46,         46,        1,   460800, 6c4d3b63dc1d4291ec88a4bb8c35aecd
0,         47,         47,        1,   460800, 7a9be67aca439dd2a7ff17447b478974
